#tb 0: 1/15
0,          0,          0,        1,   161280, 0x7041748d
0,          1,          1,        1,   161280, 0x3cc4dfb5
0,          2,          2,        1,   161280, 0xca3af22d
0,          3,          3,        1,   161280, 0x23ad1d85
0,          4,          4,        1,   161280, 0x9c9cf364
0,          5,          5,        1,   161280, 0x1551d6a8
0,          6,          6,        1,   161280, 0xc39f6b95
0,          7,          7,        1,   161280, 0x3b036dcc
0,          8,          8,        1,   161280, 0xa6fac1db
0,          9,          9,        1,   161280, 0x67656b62
0,         10,         10,        1,   161280, 0xb41f47d1
0,         11,         11,        1,   161280, 0xc207249e
0,         12,         12,        1,   161280, 0xbee8f843
0,         13,         13,        1,   161280, 0x092acf46
0,         14,         14,        1,   161280, 0x8d9e2680
0,         15,         15,        1,   161280, 0x8becc20c
0,         16,         16,        1,   161280, 0x655e444e
0,         17,         17,        1,   161280, 0x5c112da0
0,         18,         18,        1,   161280, 0x232fa9eb
0,         19,         19,        1,   161280, 0x9721745d
0,         20,         20,        1,   161280, 0x92f1d880
0,         21,         21,        1,   161280, 0x16233978
0,         22,         22,        1,   161280, 0x19a27e69
0,         23,         23,        1,   161280, 0x7b6ad73a
0,         24,         24,        1,   161280, 0xa7a674aa
0,         25,         25,        1,   161280, 0x4e434abb
0,         26,         26,        1,   161280, 0xb96eea14
0,         27,         27,        1,   161280, 0x1350188c
0,         28,         28,        1,   161280, 0x79c6f305
0,         29,         29,        1,   161280, 0xa9c7782d
0,         30,         30,        1,   161280, 0x40a4f456
0,         31,         31,        1,   161280, 0xaf291ed6
0,         32,         32,        1,   161280, 0xab29b4e1
0,         33,         33,        1,   161280, 0xbfcd2712
0,         34,         34,        1,   161280, 0xff22a0d7
0,         35,         35,        1,   161280, 0xb0ae88a9
0,         36,         36,        1,   161280, 0x811d1259
0,         37,         37,        1,   161280, 0x593c39a1
0,         38,         38,        1,   161280, 0x5a5a97f8
0,         39,         39,        1,   161280, 0xa5639ecf
0,         40,         40,        1,   161280, 0x543920c6
0,         41,         41,        1,   161280, 0xb41689ee
0,         42,         42,        1,   161280, 0xc0ad83de
0,         43,         43,        1,   161280, 0x9e9e7456
0,         44,         44,        1,   161280, 0x777ccbfe
0,         45,         45,        1,   161280, 0x9c2df916
0,         46,         46,        1,   161280, 0xe0c13b35
0,         47,         47,        1,   161280, 0x39bfa5a5
0,         48,         48,        1,   161280, 0x35dfb264
0,         49,         49,        1,   161280, 0x43018613
0,         50,         50,        1,   161280, 0x43584b8a
0,         51,         51,        1,   161280, 0xa5cd230a
0,         52,         52,        1,   161280, 0x6fe2cfb3
0,         53,         53,        1,   161280, 0x88a7c0db
0,         54,         54,        1,   161280, 0x476f1cd2
0,         55,         55,        1,   161280, 0x96401d49
0,         56,         56,        1,   161280, 0x7d932919
0,         57,         57,        1,   161280, 0x06465481
0,         58,         58,        1,   161280, 0x39631520
0,         59,         59,        1,   161280, 0xc3fff780
0,         60,         60,        1,   161280, 0xa81faf28
0,         61,         61,        1,   161280, 0x7a311f4f
0,         62,         62,        1,   161280, 0x52f9b931
0,         63,         63,        1,   161280, 0x938cf016
0,         64,         64,        1,   161280, 0xf8f6e19c
0,         65,         65,        1,   161280, 0xca90561b
0,         66,         66,        1,   161280, 0x8594d06b
0,         67,         67,        1,   161280, 0xea32bf3b
0,         68,         68,        1,   161280, 0x4646111a
0,         69,         69,        1,   161280, 0xee891162
0,         70,         70,        1,   161280, 0xcfc32082
0,         71,         71,        1,   161280, 0x863c281a
0,         72,         72,        1,   161280, 0x01b591aa
0,         73,         73,        1,   161280, 0x211fbc62
0,         74,         74,        1,   161280, 0xae2bafe2
0,         75,         75,        1,   161280, 0xcfe46dca
0,         76,         76,        1,   161280, 0xcf8fe8a3
0,         77,         77,        1,   161280, 0x3f8474eb
0,         78,         78,        1,   161280, 0x06da345a
0,         79,         79,        1,   161280, 0xbd4d3280
0,         80,         80,        1,   161280, 0xb5e70fea
0,         81,         81,        1,   161280, 0x0c99c804
0,         82,         82,        1,   161280, 0x19841ed4
0,         83,         83,        1,   161280, 0xf81dea50
0,         84,         84,        1,   161280, 0x7777d81c
0,         85,         85,        1,   161280, 0x0497cfd8
0,         86,         86,        1,   161280, 0x50b6eb64
0,         87,         87,        1,   161280, 0x5071fc07
0,         88,         88,        1,   161280, 0xbb7527fb
0,         89,         89,        1,   161280, 0x13054f1f
0,         90,         90,        1,   161280, 0x4b78fb27
0,         91,         91,        1,   161280, 0xf504968f
0,         92,         92,        1,   161280, 0x555b10b7
0,         93,         93,        1,   161280, 0xcc0dde40
0,         94,         94,        1,   161280, 0xcc0dde40
0,         95,         95,        1,   161280, 0x367f60c8
0,         96,         96,        1,   161280, 0x367f60c8
0,         97,         97,        1,   161280, 0x367f60c8
0,         98,         98,        1,   161280, 0x367f60c8
0,         99,         99,        1,   161280, 0x367f60c8
0,        100,        100,        1,   161280, 0x367f60c8
0,        101,        101,        1,   161280, 0x367f60c8
0,        102,        102,        1,   161280, 0x367f60c8
0,        103,        103,        1,   161280, 0x367f60c8
0,        104,        104,        1,   161280, 0x367f60c8
